<svg width="24" height="24" viewBox="0 0 22 22" fill="none" xmlns="http://www.w3.org/2000/svg">
<path fill-rule="evenodd" clip-rule="evenodd" d="M16 9C16 12.866 12.866 16 9 16C5.134 16 2 12.866 2 9C2 5.134 5.134 2 9 2C12.866 2 16 5.134 16 9ZM14.6177 16.0318C13.078 17.2636 11.125 18 9 18C4.02944 18 0 13.9706 0 9C0 4.02944 4.02944 0 9 0C13.9706 0 18 4.02944 18 9C18 11.125 17.2636 13.078 16.0318 14.6177L21.7072 20.2928C22.0976 20.6834 22.0976 21.3166 21.7072 21.7072C21.3166 22.0976 20.6834 22.0976 20.2928 21.7072L14.6177 16.0318Z" fill="currentColor"/>
</svg>
